<mxfile host="65bd71144e">
    <diagram id="0ou3tJIleFjJoa_R5QhZ" name="Page-1">
        <mxGraphModel dx="2732" dy="3599" grid="0" gridSize="10" guides="1" tooltips="1" connect="1" arrows="1" fold="1" page="1" pageScale="1" pageWidth="827" pageHeight="1169" math="0" shadow="0">
            <root>
                <mxCell id="0"/>
                <mxCell id="1" parent="0"/>
                <mxCell id="51" value="" style="whiteSpace=wrap;html=1;aspect=fixed;shadow=1;labelBackgroundColor=#2A2323;fontSize=13;strokeColor=#10739e;fillColor=#b1ddf0;" vertex="1" parent="1">
                    <mxGeometry x="-20" y="-75" width="855" height="855" as="geometry"/>
                </mxCell>
                <mxCell id="4" value="" style="edgeStyle=none;html=1;entryX=0;entryY=0.5;entryDx=0;entryDy=0;fillColor=#2A2323;strokeColor=#000000;labelBackgroundColor=#2A2323;fontColor=#F0F0F0;fontSize=13;" parent="1" source="2" target="44" edge="1">
                    <mxGeometry relative="1" as="geometry">
                        <mxPoint x="250" y="300" as="targetPoint"/>
                    </mxGeometry>
                </mxCell>
                <mxCell id="2" value="onStart()" style="rounded=1;whiteSpace=wrap;html=1;fillColor=#2A2323;strokeColor=#000000;labelBackgroundColor=#2A2323;fontColor=#F0F0F0;fontSize=13;" parent="1" vertex="1">
                    <mxGeometry x="52" y="270" width="120" height="60" as="geometry"/>
                </mxCell>
                <mxCell id="7" style="edgeStyle=none;html=1;exitX=1;exitY=0.5;exitDx=0;exitDy=0;entryX=0;entryY=0.5;entryDx=0;entryDy=0;fillColor=#2A2323;strokeColor=#000000;labelBackgroundColor=#2A2323;fontColor=#F0F0F0;fontSize=13;" parent="1" source="34" target="25" edge="1">
                    <mxGeometry relative="1" as="geometry">
                        <mxPoint x="388" y="130" as="targetPoint"/>
                        <Array as="points"/>
                    </mxGeometry>
                </mxCell>
                <mxCell id="16" style="edgeStyle=none;html=1;fillColor=#2A2323;strokeColor=#000000;labelBackgroundColor=#2A2323;fontColor=#F0F0F0;fontSize=13;" parent="1" source="15" target="17" edge="1">
                    <mxGeometry relative="1" as="geometry">
                        <mxPoint x="271" y="438" as="targetPoint"/>
                    </mxGeometry>
                </mxCell>
                <mxCell id="15" value="onHelp()" style="rounded=1;whiteSpace=wrap;html=1;fillColor=#2A2323;strokeColor=#000000;labelBackgroundColor=#2A2323;fontColor=#F0F0F0;fontSize=13;" parent="1" vertex="1">
                    <mxGeometry x="41" y="583" width="120" height="60" as="geometry"/>
                </mxCell>
                <mxCell id="17" value="I can't help you" style="ellipse;whiteSpace=wrap;html=1;aspect=fixed;fillColor=#2A2323;strokeColor=#000000;labelBackgroundColor=#2A2323;fontColor=#F0F0F0;fontSize=13;" parent="1" vertex="1">
                    <mxGeometry x="241" y="573" width="80" height="80" as="geometry"/>
                </mxCell>
                <mxCell id="35" value="" style="edgeStyle=none;html=1;entryX=0;entryY=0.5;entryDx=0;entryDy=0;exitX=1;exitY=0.5;exitDx=0;exitDy=0;fillColor=#2A2323;strokeColor=#000000;labelBackgroundColor=#2A2323;fontColor=#F0F0F0;fontSize=13;" edge="1" parent="1" source="47" target="40">
                    <mxGeometry relative="1" as="geometry">
                        <mxPoint x="433" y="429" as="targetPoint"/>
                        <Array as="points"/>
                    </mxGeometry>
                </mxCell>
                <mxCell id="41" value="" style="edgeStyle=none;html=1;exitX=0.5;exitY=0;exitDx=0;exitDy=0;fillColor=#2A2323;strokeColor=#000000;labelBackgroundColor=#2A2323;fontColor=#F0F0F0;fontSize=13;" edge="1" parent="1" source="44" target="34">
                    <mxGeometry relative="1" as="geometry"/>
                </mxCell>
                <mxCell id="24" style="edgeStyle=none;html=1;entryX=0;entryY=0.5;entryDx=0;entryDy=0;exitX=0.5;exitY=0;exitDx=0;exitDy=0;fillColor=#2A2323;strokeColor=#000000;labelBackgroundColor=#2A2323;fontColor=#F0F0F0;fontSize=13;" parent="1" source="36" target="25" edge="1">
                    <mxGeometry relative="1" as="geometry">
                        <Array as="points"/>
                    </mxGeometry>
                </mxCell>
                <mxCell id="37" style="edgeStyle=none;html=1;exitX=0.5;exitY=0;exitDx=0;exitDy=0;fillColor=#2A2323;strokeColor=#000000;labelBackgroundColor=#2A2323;fontColor=#F0F0F0;fontSize=13;" edge="1" parent="1" source="40" target="36">
                    <mxGeometry relative="1" as="geometry">
                        <mxPoint x="493" y="399" as="sourcePoint"/>
                    </mxGeometry>
                </mxCell>
                <mxCell id="26" style="edgeStyle=none;html=1;exitX=0.5;exitY=1;exitDx=0;exitDy=0;entryX=0.5;entryY=1;entryDx=0;entryDy=0;fillColor=#2A2323;strokeColor=#000000;labelBackgroundColor=#2A2323;fontColor=#F0F0F0;fontSize=13;" parent="1" source="25" edge="1" target="25">
                    <mxGeometry relative="1" as="geometry">
                        <mxPoint x="615" y="198" as="targetPoint"/>
                        <Array as="points">
                            <mxPoint x="667" y="290"/>
                            <mxPoint x="617" y="290"/>
                        </Array>
                    </mxGeometry>
                </mxCell>
                <mxCell id="30" value="No" style="edgeLabel;html=1;align=center;verticalAlign=middle;resizable=0;points=[];fillColor=#2A2323;strokeColor=#000000;labelBackgroundColor=#2A2323;fontColor=#F0F0F0;fontSize=13;" vertex="1" connectable="0" parent="26">
                    <mxGeometry x="-0.595" y="1" relative="1" as="geometry">
                        <mxPoint as="offset"/>
                    </mxGeometry>
                </mxCell>
                <mxCell id="28" style="edgeStyle=none;html=1;exitX=1;exitY=0.5;exitDx=0;exitDy=0;entryX=1;entryY=0.5;entryDx=0;entryDy=0;fillColor=#2A2323;strokeColor=#000000;labelBackgroundColor=#2A2323;fontColor=#F0F0F0;fontSize=13;" edge="1" parent="1" source="25" target="25">
                    <mxGeometry relative="1" as="geometry">
                        <mxPoint x="785" y="227" as="targetPoint"/>
                        <Array as="points">
                            <mxPoint x="792" y="158"/>
                            <mxPoint x="792" y="230"/>
                        </Array>
                    </mxGeometry>
                </mxCell>
                <mxCell id="29" value="0ther" style="edgeLabel;html=1;align=center;verticalAlign=middle;resizable=0;points=[];fillColor=#2A2323;strokeColor=#000000;labelBackgroundColor=#2A2323;fontColor=#F0F0F0;fontSize=13;" vertex="1" connectable="0" parent="28">
                    <mxGeometry x="-0.6044" y="-1" relative="1" as="geometry">
                        <mxPoint as="offset"/>
                    </mxGeometry>
                </mxCell>
                <mxCell id="25" value="&lt;span style=&quot;font-size: 13px;&quot;&gt;askNextChapter()&lt;br style=&quot;font-size: 13px;&quot;&gt;&lt;/span&gt;" style="rhombus;whiteSpace=wrap;html=1;fillColor=#2A2323;strokeColor=#000000;labelBackgroundColor=#2A2323;fontColor=#F0F0F0;fontSize=13;" parent="1" vertex="1">
                    <mxGeometry x="605" y="118" width="134" height="80" as="geometry"/>
                </mxCell>
                <mxCell id="27" style="edgeStyle=none;html=1;exitX=0.5;exitY=0;exitDx=0;exitDy=0;entryX=0;entryY=0.5;entryDx=0;entryDy=0;fillColor=#2A2323;strokeColor=#000000;labelBackgroundColor=#2A2323;fontColor=#F0F0F0;fontSize=13;" parent="1" source="25" target="25" edge="1">
                    <mxGeometry relative="1" as="geometry">
                        <Array as="points">
                            <mxPoint x="672" y="34"/>
                            <mxPoint x="512" y="34"/>
                        </Array>
                    </mxGeometry>
                </mxCell>
                <mxCell id="31" value="Yes" style="edgeLabel;html=1;align=center;verticalAlign=middle;resizable=0;points=[];fillColor=#2A2323;strokeColor=#000000;labelBackgroundColor=#2A2323;fontColor=#F0F0F0;fontSize=13;" vertex="1" connectable="0" parent="27">
                    <mxGeometry x="-0.7389" y="-2" relative="1" as="geometry">
                        <mxPoint as="offset"/>
                    </mxGeometry>
                </mxCell>
                <mxCell id="34" value="Logged in" style="rounded=1;whiteSpace=wrap;html=1;labelBackgroundColor=#2A2323;fillColor=#2A2323;strokeColor=#000000;fontColor=#F0F0F0;fontSize=13;" vertex="1" parent="1">
                    <mxGeometry x="258" y="128" width="92" height="60" as="geometry"/>
                </mxCell>
                <mxCell id="36" value="You logged in" style="rounded=1;whiteSpace=wrap;html=1;shadow=1;fillColor=#2A2323;strokeColor=#000000;labelBackgroundColor=#2A2323;fontColor=#F0F0F0;fontSize=13;" vertex="1" parent="1">
                    <mxGeometry x="423.75" y="270" width="120" height="60" as="geometry"/>
                </mxCell>
                <mxCell id="43" style="edgeStyle=none;html=1;entryX=0.5;entryY=1;entryDx=0;entryDy=0;exitX=0.5;exitY=1;exitDx=0;exitDy=0;fillColor=#2A2323;strokeColor=#000000;labelBackgroundColor=#2A2323;fontColor=#F0F0F0;fontSize=13;" edge="1" parent="1" source="40" target="40">
                    <mxGeometry relative="1" as="geometry">
                        <mxPoint x="484" y="631" as="targetPoint"/>
                        <Array as="points">
                            <mxPoint x="484" y="617"/>
                            <mxPoint x="562" y="617"/>
                        </Array>
                    </mxGeometry>
                </mxCell>
                <mxCell id="49" value="No" style="edgeLabel;html=1;align=center;verticalAlign=middle;resizable=0;points=[];fillColor=#2A2323;strokeColor=#000000;labelBackgroundColor=#2A2323;fontColor=#F0F0F0;fontSize=13;" vertex="1" connectable="0" parent="43">
                    <mxGeometry x="-0.5372" y="4" relative="1" as="geometry">
                        <mxPoint y="1" as="offset"/>
                    </mxGeometry>
                </mxCell>
                <mxCell id="40" value="&lt;span style=&quot;font-size: 13px;&quot;&gt;Would you like to join?&lt;/span&gt;" style="rhombus;whiteSpace=wrap;html=1;shadow=1;labelBackgroundColor=#2A2323;fillColor=#2A2323;strokeColor=#000000;fontColor=#F0F0F0;fontSize=13;" vertex="1" parent="1">
                    <mxGeometry x="439" y="414" width="84.5" height="80" as="geometry"/>
                </mxCell>
                <mxCell id="48" style="edgeStyle=none;html=1;entryX=0.5;entryY=0;entryDx=0;entryDy=0;fillColor=#2A2323;strokeColor=#000000;labelBackgroundColor=#2A2323;fontColor=#F0F0F0;fontSize=13;" edge="1" parent="1" source="44" target="47">
                    <mxGeometry relative="1" as="geometry"/>
                </mxCell>
                <mxCell id="44" value="Logged in?" style="rounded=1;whiteSpace=wrap;html=1;shadow=1;labelBackgroundColor=#2A2323;fillColor=#2A2323;strokeColor=#000000;fontColor=#F0F0F0;fontSize=13;" vertex="1" parent="1">
                    <mxGeometry x="244" y="270" width="120" height="60" as="geometry"/>
                </mxCell>
                <mxCell id="47" value="Logging in" style="rounded=1;whiteSpace=wrap;html=1;labelBackgroundColor=#2A2323;fillColor=#2A2323;strokeColor=#000000;fontColor=#F0F0F0;fontSize=13;" vertex="1" parent="1">
                    <mxGeometry x="258" y="422" width="92" height="60" as="geometry"/>
                </mxCell>
            </root>
        </mxGraphModel>
    </diagram>
</mxfile>
